<svg width="266.7" height="265.8" xmlns="http://www.w3.org/2000/svg">
 <style type="text/css">.st0 {
      fill: #FF8C00;
    }</style>

 <g>
  <title>background</title>
  <rect fill="none" id="canvas_background" height="402" width="582" y="-1" x="-1"/>
 </g>
 <g>
  <title>Layer 1</title>
  <g stroke="null" id="svg_7">
   <path stroke="null" id="svg_5" fill="#8B3FFD" d="m154.287465,78.409066c-28.564103,0 -51.285717,24.48641 -51.285717,54.490935c0,30.349362 23.046254,54.490935 51.285717,54.490935c28.239719,0 51.285888,-24.48641 51.285888,-54.490935c0,-30.004525 -23.046169,-54.490935 -51.285888,-54.490935zm0,74.83885c-10.386845,0 -19.150834,-9.311774 -19.150834,-20.347914c0,-11.03614 8.763989,-20.347914 19.150834,-20.347914c10.387102,0 19.151005,9.311774 19.151005,20.347914c-0.323956,11.03614 -8.763903,20.347914 -19.151005,20.347914z"/>
   <path stroke="null" id="svg_6" fill="#8B3FFD" d="m102.674715,94.273557l0,79.322091l-18.177257,0l-23.370808,-79.322091l41.548065,0l0,0z"/>
  </g>
 </g>
</svg>